<svg width="138" height="28" viewBox="0 0 138 28" fill="none" xmlns="http://www.w3.org/2000/svg">
<path d="M85.6651 15.6716C85.4649 13.1403 83.5969 12.0412 79.9274 11.3751C77.3255 10.9088 76.6583 10.176 76.6583 9.31006C76.6583 8.71055 77.0586 7.61144 79.1936 7.61144C80.4612 7.61144 81.7622 8.31087 82.1291 9.40998L84.9841 7.7047C84.6524 7.15181 83.33 4.51395 79.1936 4.51395C74.7569 4.51395 73.0556 7.71136 73.4893 10.2426C73.8896 12.674 75.791 13.6399 78.8933 14.2727C81.3952 14.7723 82.3626 15.2386 82.4627 16.0046C82.5961 16.9039 81.7622 17.9364 79.6272 17.9364C77.4589 17.9364 76.3915 16.9372 76.0245 15.938L73.4894 17.546C74.2581 19.4258 76.0912 21.1005 79.7607 21.1005C83.4301 21.1005 85.932 18.8024 85.6651 15.6716Z" fill="white"/>
<path d="M24.5289 15.6716C24.3303 13.1403 22.4771 12.0412 18.8368 11.3751C16.2555 10.9088 15.5936 10.1761 15.5936 9.31009C15.5936 8.71058 15.9907 7.61147 18.1087 7.61147C19.3663 7.61147 20.6569 8.3109 21.021 9.41001L23.8533 7.70473C23.5242 7.15184 22.2123 4.51398 18.1087 4.51398C13.7073 4.51398 12.0195 7.71139 12.4497 10.2427C12.8468 12.674 14.7332 13.6399 17.8109 14.2727C20.2929 14.7723 21.2526 15.2386 21.3519 16.0047C21.4843 16.9039 20.6569 17.9364 18.5389 17.9364C16.3879 17.9364 15.4026 17.0038 15.0386 16.0047L12.4498 17.5461C13.2124 19.4259 15.031 21.1005 18.6713 21.1005C22.3116 21.1005 24.7937 18.8024 24.5289 15.6716Z" fill="white"/>
<path d="M57.0752 15.6875C56.8751 13.1562 55.007 12.0571 51.3376 11.391C48.7356 10.9247 48.0685 10.192 48.0685 9.326C48.0685 8.72649 48.4688 7.62738 50.6037 7.62738C51.8713 7.62738 53.1723 8.32681 53.5393 9.42592L56.3942 7.61006C56.0624 7.05718 54.7402 4.5299 50.6037 4.5299C46.1671 4.5299 44.4658 7.7273 44.8994 10.2586C45.2997 12.6899 47.2012 13.6558 50.3035 14.2886C52.8054 14.7882 53.7728 15.2545 53.8728 16.0206C54.0063 16.9198 53.1723 17.9523 51.0374 17.9523C48.8691 17.9523 47.8044 17.0131 47.4374 16.0139L44.8995 17.562C45.6683 19.4418 47.5014 21.1164 51.1708 21.1164C54.8402 21.1164 57.3421 18.8183 57.0752 15.6875Z" fill="white"/>
<path d="M72.5293 4.76304H69.1268L65.2572 15.854L61.3542 4.76304H57.9517L62.9756 18.7065C63.3518 19.7505 63.3861 20.8961 63.0142 21.9416C62.3275 23.8723 61.8757 24.3072 60.2644 24.3072L58.8857 27.4113C63.5225 28.3772 65.1905 24.98 66.9918 20.2172L72.5293 4.76304Z" fill="white"/>
<path d="M94.7644 17.6726C94.2115 18.0043 94.0478 18.0856 93.3807 17.8191C92.6801 17.5527 92.3799 16.9531 92.3799 15.521V7.62738H95.6824V4.76304H92.3799V0.533142L89.2109 2.41295V4.76304H87.0426V7.62738H89.2109V15.6542C89.2109 18.5852 90.1115 20.2172 92.113 20.85C93.7476 21.3496 95.9807 20.9899 97.4182 19.4418L94.7644 17.6726Z" fill="white"/>
<path d="M112.419 14.1674C112.52 13.6345 112.553 13.1016 112.553 12.5687C112.553 8.03905 110.051 4.5299 105.381 4.5299C100.711 4.5299 97.6417 8.2602 97.6417 12.7899C97.6417 17.3195 100.811 21.0498 105.481 21.0498C108.45 21.0498 110.603 19.8268 111.904 17.562L109.15 15.8873C108.416 17.0864 107.182 17.8857 105.481 17.8857C103.146 17.8857 101.678 16.1658 101.211 14.1674H112.419ZM105.381 7.694C107.783 7.694 108.95 9.2927 109.284 11.391H101.144C101.578 9.2927 102.979 7.694 105.381 7.694Z" fill="white"/>
<path d="M132.029 4.5299C129.894 4.5299 128.226 5.49578 127.125 7.1611C126.091 5.42917 124.39 4.5299 122.155 4.5299C120.587 4.5299 119.353 5.0961 118.385 6.02868V4.09958L115.216 5.95141V20.8167H118.385V11.8573C118.385 8.85972 119.686 7.694 121.654 7.694C123.522 7.694 125.023 8.92633 125.023 12.0571V20.8167H128.192V11.8573C128.192 8.85972 129.594 7.694 131.562 7.694C133.396 7.694 134.797 8.92633 134.797 12.0571V20.8167H138V11.7574C138 7.12779 135.832 4.5299 132.029 4.5299Z" fill="white"/>
<path d="M5.9707 20.7762H9.11404V19.9844V5.66285V4.07157L5.9707 5.95138V20.7762Z" fill="white"/>
<path d="M35.6131 4.7053C33.5617 4.7053 31.9073 5.42833 30.7492 6.64433V4.93536H27.5728V27.0561L30.8815 25.0141L30.7492 19.0672C31.9073 20.2832 33.5617 21.0063 35.6131 21.0063C40.2454 21.0063 43.0248 17.3254 43.0248 12.8558C43.0248 8.38617 40.2454 4.7053 35.6131 4.7053ZM35.2491 17.8841C32.3374 17.8841 30.8815 15.5836 30.8815 12.8558C30.8815 10.128 32.3705 7.82747 35.2491 7.82747C38.0947 7.82747 39.5836 10.128 39.5836 12.8558C39.5836 15.5836 38.1278 17.8841 35.2491 17.8841Z" fill="white"/>
<circle cx="2.21154" cy="5.8409" r="2.21154" fill="#F7D20F"/>
</svg>
