<svg width="262" height="46" viewBox="0 0 262 46" fill="none" xmlns="http://www.w3.org/2000/svg">
<g clip-path="url(#clip0)">
<path d="M16.0711 12.4262V12.2965C16.034 12.289 15.9958 12.289 15.9586 12.2965H15.8461H6.97471C6.82292 12.2951 6.67532 12.3467 6.55685 12.4425C6.43247 12.5275 6.34149 12.6537 6.29971 12.7994L0.224712 33.1422C0.201138 33.249 0.201138 33.3598 0.224712 33.4666C0.240862 33.5787 0.285118 33.6848 0.353283 33.7748C0.402963 33.8943 0.486923 33.996 0.594354 34.0668C0.694038 34.1181 0.803941 34.1458 0.915783 34.148H9.1765C9.35513 34.136 9.52222 34.0546 9.64257 33.9208C9.77111 33.8329 9.86274 33.7 9.89971 33.5477L16.0711 12.556C16.078 12.513 16.078 12.4692 16.0711 12.4262ZM28.5104 12.4262C28.4506 12.3351 28.3672 12.2622 28.2694 12.2154C28.1635 12.1916 28.0538 12.1916 27.9479 12.2154H19.4301C19.3567 12.1928 19.2784 12.1928 19.2051 12.2154C19.168 12.2387 19.1361 12.2695 19.1112 12.3058C19.0864 12.342 19.0691 12.383 19.0604 12.4262L12.8569 33.5477C12.849 33.6124 12.849 33.6777 12.8569 33.7424C12.8482 33.7961 12.8482 33.8509 12.8569 33.9046C12.8896 33.9591 12.9411 33.9995 13.0015 34.0182C13.0593 34.0349 13.1205 34.0349 13.1783 34.0182H21.8729C22.0243 34.017 22.1711 33.9657 22.2908 33.8722C22.4112 33.7864 22.4968 33.6597 22.5319 33.5153L28.6551 13.0914C28.6797 12.9846 28.6797 12.8736 28.6551 12.7669C28.6405 12.6621 28.602 12.5621 28.5426 12.4749L28.5104 12.4262Z" fill="#56CFAB"/>
<path d="M35.9368 35.0077H40.2601V12.2964H35.9368V35.0077ZM40.019 5.80749C39.6581 5.44168 39.2007 5.18828 38.7011 5.07749C38.2015 4.96575 37.6799 5.01104 37.2065 5.20727C36.7285 5.391 36.3186 5.7197 36.0333 6.14816C35.7361 6.57039 35.5735 7.07405 35.5672 7.59195C35.5587 7.9334 35.6184 8.27309 35.7426 8.5908C35.8669 8.9085 36.0532 9.19774 36.2904 9.44129C36.5231 9.68783 36.8021 9.8851 37.1112 10.0216C37.4202 10.1581 37.7531 10.231 38.0904 10.2362C38.6209 10.2153 39.1342 10.0408 39.569 9.7333C39.9925 9.4499 40.3271 9.0503 40.5333 8.58151C40.7429 8.10848 40.8045 7.58217 40.7101 7.07283C40.6131 6.56616 40.3731 6.09857 40.019 5.72638V5.80749ZM53.8243 21.754C50.2726 21.0889 49.3726 20.1318 49.3726 18.834C49.3726 17.9742 49.919 16.4169 52.8279 16.4169C53.6718 16.3835 54.5059 16.609 55.2203 17.0637C55.9347 17.5183 56.4958 18.1808 56.8297 18.9638L60.9279 17.5038C60.3603 15.834 59.2686 14.3967 57.8183 13.4101C56.3681 12.4235 54.6385 11.9413 52.8922 12.0369C46.8333 12.0369 44.519 16.5629 45.1136 20.148C45.7083 23.7332 48.2476 25.0147 52.4743 25.8583C55.8976 26.5559 57.2958 27.221 57.2958 28.3079C57.2958 29.3948 56.3476 31.0332 53.4386 31.0332C52.427 31.1554 51.403 30.951 50.5136 30.4492C49.6221 29.9463 48.9212 29.1589 48.5208 28.2105L44.4226 29.7192C45.4672 32.8339 48.6011 35.5106 53.6154 35.5106C58.6297 35.5106 62.0368 32.2661 61.6511 27.8374C61.3779 24.1712 58.8226 22.6138 53.8243 21.6729V21.754ZM76.9833 12.0206C75.7402 11.9894 74.5041 12.2158 73.3511 12.6858C72.1944 13.1655 71.1531 13.8902 70.2976 14.8109V12.2964H65.894V43.2324H70.2654V32.5581C71.1216 33.4741 72.163 34.1933 73.319 34.667C74.4674 35.1525 75.7069 35.3795 76.9511 35.3321C83.3797 35.3321 87.1404 30.0599 87.1404 23.6521C87.1404 17.2442 83.3636 11.9558 76.9833 11.9558V12.0206ZM76.4851 30.8223C72.4833 30.8223 70.4743 27.5779 70.4743 23.6196C70.4743 19.6614 72.5315 16.4007 76.4851 16.4007C80.4386 16.4007 82.4476 19.6451 82.4476 23.6196C82.4476 27.5941 80.4386 30.8223 76.4851 30.8223Z" fill="white"/>
<path opacity="0.4" d="M115.601 12.3613C114.258 12.3295 112.93 12.648 111.744 13.2859C110.559 13.9289 109.562 14.8742 108.851 16.0275C108.158 14.8405 107.153 13.87 105.948 13.2231C104.743 12.5761 103.384 12.2779 102.021 12.3613C101.059 12.3462 100.103 12.5226 99.2085 12.8804C98.3195 13.2612 97.5118 13.8121 96.83 14.5026V12.6857H92.4746V35.0076H96.83V22.5489C96.83 18.3797 98.6139 16.7575 101.33 16.7575C104.046 16.7575 105.959 18.4771 105.959 22.8247V35.0076H110.314V22.5489C110.314 18.3797 112.242 16.7575 114.959 16.7575C117.675 16.7575 119.394 18.4771 119.394 22.8247V35.0076H123.75V22.4029C123.75 15.9788 120.825 12.3613 115.601 12.3613ZM137.394 12.3613C135.399 12.2217 133.417 12.7834 131.785 13.951C130.165 15.1756 129.026 16.94 128.571 18.9313L132.525 19.7749C132.782 18.7346 133.39 17.817 134.244 17.1793C135.058 16.5561 136.052 16.2198 137.073 16.2222C138.953 16.0762 141.428 17.0495 141.107 19.2233C140.882 20.8455 138.439 20.9915 135.594 21.7215C131.062 22.9382 128.041 24.236 127.559 28.6323C127.141 32.2823 129.953 35.7539 135.128 35.2996C137.46 35.1885 139.656 34.1642 141.251 32.4445V35.0887H145.559V20.5049C145.559 14.5999 142.023 12.3126 137.394 12.3126V12.3613ZM141.251 25.5176C141.154 26.9992 140.545 28.3995 139.532 29.4758C138.518 30.5552 137.156 31.234 135.691 31.39C133.264 31.5847 132.476 30.66 132.3 29.638C132.123 28.616 132.396 26.8478 136.334 25.842C139.275 25.0958 141.251 24.5442 141.251 24.5442V25.5176ZM161.309 12.4099C160.245 12.4048 159.191 12.6194 158.213 13.0407C157.234 13.462 156.352 14.0809 155.619 14.8595V12.6857H151.264V35.0076H155.619V22.5489C155.619 18.3797 157.773 16.7575 160.441 16.7575C163.109 16.7575 165.085 18.4771 165.085 22.8247V35.0076H169.441V22.4029C169.473 15.9788 166.484 12.3613 161.309 12.3613V12.4099ZM184.628 12.4099C182.599 12.2515 180.58 12.8319 178.938 14.0461C177.296 15.2602 176.139 17.0277 175.676 19.0286L179.614 19.8722C179.856 18.809 180.456 17.8635 181.312 17.1977C182.168 16.5319 183.227 16.187 184.307 16.2222C186.187 16.0762 188.662 17.0495 188.341 19.2233C188.116 20.8455 185.673 20.9915 182.828 21.7215C178.296 22.9382 175.259 24.236 174.792 28.6323C174.375 32.2823 177.171 35.7539 182.362 35.2996C184.69 35.1911 186.882 34.1661 188.469 32.4445V35.0887H192.857V20.5049C192.857 14.5999 189.257 12.3126 184.628 12.3126V12.4099ZM188.469 25.5662C188.383 27.0489 187.778 28.4526 186.763 29.5278C185.748 30.603 184.388 31.2801 182.925 31.4387C180.498 31.6334 179.71 30.7087 179.534 29.6867C179.357 28.6647 179.63 26.8965 183.567 25.8907C186.509 25.1445 188.389 24.5929 188.389 24.5929L188.469 25.5662ZM214.81 15.1839C213.946 14.2388 212.895 13.4872 211.725 12.9777C210.567 12.5052 209.324 12.2841 208.076 12.3288C201.648 12.3288 197.791 17.52 197.791 23.8142C197.791 30.1085 201.648 35.2996 208.076 35.2996C209.324 35.3364 210.565 35.1156 211.725 34.6507C212.887 34.1792 213.938 33.4663 214.81 32.5581V33.2069C214.81 38.3981 212.062 40.9937 208.382 40.9937C207.263 41.0112 206.157 40.7433 205.167 40.215C204.195 39.6788 203.367 38.9102 202.757 37.9763L199.092 40.3934C200.125 41.9478 201.529 43.2144 203.175 44.0759C204.812 44.954 206.64 45.4057 208.494 45.3899C214.135 45.3899 219.134 42.1454 219.134 32.8014V12.6857H214.73L214.81 15.1839ZM208.623 31.0332C204.621 31.0332 202.564 27.7887 202.564 23.944C202.564 20.0993 204.589 16.8548 208.623 16.8548C212.657 16.8548 214.634 20.0993 214.634 23.944C214.634 27.7887 212.56 30.9358 208.623 30.9358V31.0332ZM234.642 12.3613C228.214 12.3613 224.003 17.5524 224.003 23.8467C223.927 25.28 224.133 26.7143 224.608 28.0673C225.082 29.4204 225.817 30.6654 226.77 31.731C227.723 32.7967 228.874 33.6619 230.159 34.2771C231.444 34.8923 232.836 35.2453 234.257 35.3159H234.771C236.607 35.3465 238.417 34.8757 240.01 33.9534C241.603 33.031 242.919 31.6913 243.819 30.076L239.817 28.1294C239.304 29.0081 238.566 29.731 237.68 30.222C236.788 30.7092 235.785 30.9499 234.771 30.9196C233.378 30.952 232.02 30.4785 230.943 29.5854C229.866 28.6923 229.143 27.4388 228.905 26.0529H244.285C244.416 25.3197 244.476 24.5753 244.462 23.8304C244.51 17.5524 241.071 12.3613 234.642 12.3613ZM228.809 21.9C228.983 20.468 229.674 19.1512 230.751 18.2022C231.827 17.2532 233.213 16.7388 234.642 16.7575C237.937 16.7575 239.544 18.98 240.01 21.9H228.809ZM260.003 12.3126C258.939 12.3074 257.886 12.5221 256.908 12.9434C255.929 13.3646 255.046 13.9836 254.314 14.7622V12.6857H249.959V35.0076H254.314V22.5489C254.314 18.3797 256.516 16.7575 259.135 16.7575C259.73 16.7426 260.321 16.8531 260.871 17.082L261.707 12.491C261.149 12.3936 260.585 12.334 260.019 12.3126H260.003Z" fill="white"/>
</g>
<defs>
<clipPath id="clip0">
<rect width="261.964" height="45.4225" fill="white"/>
</clipPath>
</defs>
</svg>
