<svg width="258" height="45" viewBox="0 0 258 45" fill="none" xmlns="http://www.w3.org/2000/svg">
<g clip-path="url(#clip0)">
<path opacity="0.4" d="M112.527 12.1339C111.202 12.1042 109.893 12.4247 108.726 13.0641C107.559 13.7034 106.575 14.6399 105.869 15.7821C105.178 14.6043 104.183 13.6418 102.993 12.9987C101.803 12.3556 100.462 12.0566 99.1173 12.1339C98.1728 12.119 97.2347 12.2938 96.3565 12.6482C95.4721 13.0121 94.6716 13.5594 94.006 14.2554V12.4554H89.6992V34.65H94.006V22.2589C94.006 18.1286 95.7728 16.5054 98.4389 16.5054C101.105 16.5054 103.014 18.2089 103.014 22.5482V34.65H107.273V22.2589C107.273 18.1286 109.182 16.5054 111.848 16.5054C114.514 16.5054 116.25 18.2089 116.25 22.5482V34.65H120.588V22.1304C120.635 15.7339 117.701 12.1339 112.527 12.1339ZM134.092 12.0857C132.092 11.9314 130.104 12.5005 128.476 13.6929C126.883 14.911 125.765 16.6647 125.321 18.6429L129.217 19.4786C129.491 18.4778 130.085 17.599 130.906 16.9817C131.726 16.3644 132.725 16.044 133.745 16.0714C135.606 15.9268 138.052 16.8911 137.736 19.0607C137.499 20.6679 135.102 20.8125 132.293 21.5518C127.813 22.7411 124.816 24.0268 124.406 28.3982C123.995 32.0464 126.756 35.4857 131.867 35.0357C134.197 34.9087 136.381 33.8451 137.941 32.0786V34.7143H142.201V20.25C142.122 14.3518 138.635 12.0857 134.092 12.0857ZM137.894 25.1679C137.805 26.6424 137.207 28.0373 136.205 29.1052C135.202 30.1732 133.862 30.8451 132.42 31.0018C130.022 31.1946 129.265 30.2786 129.059 29.2661C128.854 28.2536 129.154 26.5018 133.051 25.4893C135.953 24.75 137.894 24.2036 137.894 24.2036V25.1679ZM157.755 12.1339C156.673 12.12 155.599 12.3334 154.6 12.7607C153.637 13.1842 152.767 13.802 152.045 14.5768V12.4554H147.754V34.65H152.06V22.2589C152.06 18.1286 154.19 16.5054 156.793 16.5054C159.396 16.5054 161.368 18.2089 161.368 22.5482V34.65H165.675V22.1304C165.754 15.7339 162.804 12.1339 157.755 12.1339ZM180.788 12.1339C178.787 11.9865 176.801 12.5682 175.182 13.7752C173.564 14.9822 172.42 16.736 171.953 18.7232L175.85 19.5589C176.11 18.5405 176.7 17.6415 177.525 17.0083C178.35 16.3751 179.361 16.0449 180.393 16.0714C182.255 15.9268 184.7 16.8911 184.385 19.0607C184.164 20.6679 181.75 20.8125 178.942 21.5518C174.462 22.7411 171.464 24.0268 170.975 28.3982C170.565 32.0464 173.326 35.4857 178.453 35.0357C179.618 34.9673 180.759 34.6653 181.809 34.1468C182.86 33.6283 183.799 32.9036 184.574 32.0143V34.65H188.818V20.1857C188.77 14.3518 185.284 12.0857 180.709 12.0857L180.788 12.1339ZM182.902 29.1536C181.907 30.2322 180.561 30.9061 179.116 31.05C176.718 31.2429 175.96 30.3268 175.755 29.3143C175.55 28.3018 175.85 26.55 179.747 25.5375C182.649 24.7982 184.59 24.2518 184.59 24.2518V25.2161C184.47 26.6844 183.844 28.0623 182.823 29.1054L182.902 29.1536ZM210.604 14.8982C209.715 14.0018 208.651 13.3063 207.48 12.8571C206.331 12.3967 205.102 12.178 203.867 12.2143C197.557 12.2143 193.724 17.3732 193.724 23.6411C193.724 29.9089 197.526 35.0518 203.867 35.0518C205.102 35.0881 206.331 34.8694 207.48 34.4089C208.628 33.9464 209.666 33.2396 210.525 32.3357V32.9786C210.525 38.1375 207.811 40.7089 204.215 40.7089C203.121 40.7253 202.042 40.4598 201.077 39.9371C200.111 39.4145 199.291 38.6517 198.693 37.7196L195.065 40.1143C196.106 41.6415 197.499 42.8854 199.122 43.7371C200.744 44.5888 202.547 45.0224 204.372 45C209.941 45 214.879 41.7857 214.879 32.4804V12.4554H210.525L210.604 14.8982ZM204.42 30.5357C200.476 30.5357 198.441 27.3214 198.441 23.4964C198.441 19.6714 200.428 16.4411 204.42 16.4411C208.411 16.4411 210.351 19.6554 210.351 23.4964C210.351 27.3375 208.316 30.5357 204.42 30.5357ZM230.134 12.0696C223.824 12.0696 219.612 17.2286 219.612 23.4964C219.544 24.9369 219.759 26.3767 220.243 27.7317C220.728 29.0866 221.473 30.3294 222.435 31.3875C223.368 32.4508 224.5 33.314 225.764 33.9268C227.034 34.5274 228.405 34.8764 229.803 34.9554H230.323C232.136 34.9875 233.923 34.5212 235.498 33.6054C237.07 32.6914 238.368 31.3578 239.252 29.7482L235.308 27.8196C234.798 28.6908 234.068 29.4067 233.194 29.8929C232.374 30.372 231.452 30.6426 230.507 30.6815C229.561 30.7205 228.621 30.5268 227.765 30.1167C226.909 29.7067 226.162 29.0925 225.589 28.3261C225.016 27.5598 224.632 26.6638 224.47 25.7143H239.694C239.823 24.9879 239.881 24.2505 239.868 23.5125C239.868 17.2929 236.476 12.1339 230.134 12.1339V12.0696ZM224.376 21.5518C224.544 20.1246 225.226 18.8117 226.289 17.8675C227.353 16.9232 228.723 16.4149 230.134 16.4411C233.399 16.4411 234.977 18.6589 235.435 21.5518H224.376ZM255.186 12.0214C254.135 12.014 253.094 12.227 252.128 12.6473C251.162 13.0676 250.291 13.6861 249.57 14.4643V12.4554H245.263V34.65H249.57V22.2589C249.57 18.1286 251.747 16.5054 254.302 16.5054C254.891 16.4968 255.475 16.6061 256.022 16.8268L256.842 12.2786C256.296 12.1693 255.742 12.1049 255.186 12.0857V12.0214Z" fill="white"/>
<path d="M21.9752 12.9375H0.91468C0.73477 12.9375 0.562229 13.0103 0.435013 13.1399C0.307797 13.2695 0.236328 13.4453 0.236328 13.6286V21.0214C0.236328 21.2047 0.307797 21.3805 0.435013 21.5101C0.562229 21.6397 0.73477 21.7125 0.91468 21.7125H21.9752C22.1551 21.7125 22.3276 21.6397 22.4548 21.5101C22.582 21.3805 22.6535 21.2047 22.6535 21.0214V13.6286C22.6535 13.4453 22.582 13.2695 22.4548 13.1399C22.3276 13.0103 22.1551 12.9375 21.9752 12.9375ZM21.9752 25.2321H0.91468C0.736074 25.2356 0.56601 25.3107 0.441411 25.4411C0.31102 25.5729 0.23727 25.7521 0.236328 25.9393V33.3161C0.252745 33.4807 0.325318 33.6343 0.441411 33.75C0.56601 33.8804 0.736074 33.9555 0.91468 33.9589H21.9752C22.1538 33.9555 22.3238 33.8804 22.4484 33.75C22.516 33.6871 22.5694 33.6099 22.6048 33.5239C22.6402 33.4379 22.6569 33.345 22.6535 33.2518V25.9393C22.6569 25.8461 22.6402 25.7532 22.6048 25.6672C22.5694 25.5811 22.516 25.504 22.4484 25.4411C22.3238 25.3107 22.1538 25.2356 21.9752 25.2321Z" fill="#93D6FF"/>
<path d="M45.7474 14.4642C44.8469 13.5562 43.7735 12.8454 42.5934 12.3756C41.4133 11.9057 40.1513 11.6867 38.885 11.732C32.3539 11.732 28.4258 16.9231 28.4258 23.2231C28.4258 29.5231 32.3539 34.6981 38.885 34.6981C40.1479 34.7497 41.4079 34.5383 42.5878 34.0769C43.7678 33.6154 44.8429 32.9135 45.7474 32.0142V34.4249H50.2435V2.0249H45.7474V14.4642ZM39.4372 30.2945C35.3671 30.2945 33.2689 27.0803 33.2689 23.2231C33.2689 19.366 35.3197 16.1356 39.4372 16.1356C43.5546 16.1356 45.5423 19.3499 45.5423 23.2231C45.5423 27.0963 43.4284 30.3428 39.4372 30.3428V30.2945ZM65.3881 16.1356C66.4091 16.0959 67.422 16.3345 68.3224 16.8267C69.2307 17.3064 69.9941 18.0286 70.5309 18.916L74.6484 16.9713C73.7049 15.335 72.3484 13.986 70.7199 13.0646C69.0914 12.1432 67.2503 11.6831 65.3881 11.732C63.9575 11.7065 62.536 11.9694 61.2055 12.5056C59.875 13.0418 58.6617 13.8408 57.6354 14.8564C56.6091 15.8721 55.7901 17.0845 55.2254 18.4238C54.6607 19.7632 54.3616 21.2031 54.3451 22.6606C54.3451 22.8535 54.3451 23.0303 54.3451 23.2231C54.2903 24.6733 54.5165 26.1203 55.011 27.4813C55.5056 28.8423 56.2586 30.0907 57.2271 31.1549C58.1956 32.2192 59.3605 33.0785 60.6553 33.6838C61.9501 34.289 63.3493 34.6282 64.7728 34.682H65.3092C67.1714 34.731 69.0125 34.2709 70.641 33.3495C72.2695 32.4281 73.626 31.0791 74.5695 29.4428L70.5152 27.5624C69.9745 28.4507 69.2125 29.1771 68.3066 29.6678C67.405 30.1551 66.392 30.3882 65.3723 30.3428C61.318 30.3428 59.0621 27.1285 59.0621 23.2713C59.0621 19.4142 61.318 16.1838 65.3723 16.1838L65.3881 16.1356ZM81.0375 8.51776C81.3535 8.64379 81.6926 8.69862 82.0314 8.67847C82.6898 8.70845 83.3341 8.47813 83.8298 8.03562C84.3042 7.55858 84.5809 6.91432 84.6028 6.23562C84.6129 5.8971 84.5552 5.56004 84.4332 5.24503C84.3111 4.93001 84.1273 4.64366 83.8929 4.40347C83.6645 4.15923 83.3906 3.96379 83.0873 3.82858C82.7839 3.69337 82.4571 3.62109 82.126 3.61597H82.0314C81.6928 3.60069 81.3547 3.65547 81.0374 3.77701C80.7202 3.89855 80.4304 4.08432 80.1856 4.32312C79.9422 4.56542 79.7491 4.85508 79.6177 5.1749C79.4879 5.49079 79.4183 5.82894 79.4126 6.17133C79.4088 6.51992 79.4788 6.86525 79.6177 7.18383C79.7394 7.50428 79.934 7.79072 80.1856 8.01954C80.4353 8.24017 80.7246 8.40937 81.0375 8.51776ZM79.7912 34.4249H84.2242V12.1178H79.7912V34.4249Z" fill="white"/>
</g>
<defs>
<clipPath id="clip0">
<rect width="257.143" height="45" fill="white"/>
</clipPath>
</defs>
</svg>
