<svg width="269" height="45" viewBox="0 0 269 45" fill="none" xmlns="http://www.w3.org/2000/svg">
<g clip-path="url(#clip0)">
<path opacity="0.4" d="M120.15 11.8607C118.792 11.8288 117.449 12.1514 116.254 12.7969C115.059 13.4423 114.053 14.3881 113.335 15.5411C112.624 14.3577 111.608 13.3866 110.394 12.7286C109.174 12.0844 107.802 11.7844 106.425 11.8607C105.452 11.8445 104.485 12.0193 103.58 12.375C102.68 12.7498 101.861 13.2956 101.169 13.9821V12.1982H96.7656V34.5536H101.25V22.0821C101.25 17.9036 103.066 16.2804 105.798 16.2804C108.53 16.2804 110.491 18 110.491 22.3554V34.5536H114.894V22.0821C114.894 17.9036 116.839 16.2804 119.587 16.2804C122.335 16.2804 124.087 18 124.087 22.3554V34.5536H128.539V21.9375C128.458 15.4929 125.437 11.8607 120.15 11.8607ZM142.2 11.8607C140.148 11.7102 138.111 12.2957 136.452 13.5122C134.794 14.7287 133.624 16.4965 133.151 18.4982L137.137 19.3339C137.418 18.3009 138.034 17.3905 138.889 16.7464C139.748 16.1003 140.804 15.771 141.878 15.8143C143.775 15.6696 146.282 16.65 145.96 18.8357C145.735 20.4429 143.276 20.5875 140.383 21.3268C135.803 22.5482 132.733 23.8339 132.219 28.2536C131.785 31.8696 134.63 35.3571 139.821 34.875C142.203 34.7459 144.437 33.6834 146.041 31.9178V34.5536H150.396V20.0893C150.46 14.0946 146.892 11.8125 142.2 11.8125V11.8607ZM146.105 25.0393C146.018 26.5294 145.405 27.9403 144.375 29.0205C143.345 30.1008 141.964 30.7801 140.48 30.9375C138.021 31.1303 137.266 30.1982 137.057 29.1696C136.848 28.1411 137.057 26.3893 141.139 25.3768C144.112 24.6214 146.105 24.075 146.105 24.075V25.0393ZM166.387 11.9089C165.282 11.8934 164.187 12.1126 163.173 12.5518C162.248 12.9799 161.414 13.5798 160.714 14.3196V12.1982H156.23V34.5536H160.714V22.0821C160.714 17.9036 162.9 16.2804 165.632 16.2804C168.364 16.2804 170.325 17.9839 170.325 22.3554V34.5536H174.728V21.9375C174.648 15.4929 171.642 11.8607 166.387 11.8607V11.9089ZM189.98 11.9089C187.929 11.7584 185.891 12.3439 184.233 13.5604C182.574 14.7769 181.404 16.5447 180.932 18.5464L184.917 19.3821C185.198 18.3491 185.814 17.4388 186.669 16.7946C187.511 16.1175 188.562 15.754 189.642 15.7661C191.539 15.6214 194.046 16.6018 193.725 18.7875C193.5 20.3946 191.041 20.5393 188.148 21.2786C183.567 22.5 180.498 23.7857 179.983 28.2053C179.566 31.8696 182.394 35.3411 187.65 34.875C190.031 34.7459 192.266 33.6834 193.869 31.9178V34.5536H198.225V20.0893C198.241 14.0946 194.673 11.8125 189.98 11.8125V11.9089ZM193.885 25.0875C193.798 26.5777 193.185 27.9886 192.155 29.0688C191.125 30.149 189.745 30.8283 188.26 30.9857C185.801 31.1786 185.046 30.2464 184.837 29.2178C184.628 28.1893 184.837 26.4375 188.919 25.425C191.892 24.6696 193.885 24.1232 193.885 24.1232V25.0875ZM220.516 14.7054C219.637 13.7945 218.574 13.0822 217.398 12.6161C216.225 12.1413 214.966 11.9169 213.701 11.9571C207.273 11.9571 203.303 17.1643 203.303 23.4643C203.303 29.7643 207.208 34.9714 213.701 34.9714C214.965 35.0185 216.225 34.7996 217.399 34.3289C218.572 33.8583 219.634 33.1464 220.516 32.2393V32.8982C220.516 38.0893 217.735 40.6928 214.087 40.6928C212.967 40.7011 211.862 40.4305 210.873 39.9053C209.884 39.3778 209.044 38.6095 208.43 37.6714L204.717 40.0821C205.779 41.6145 207.2 42.8638 208.856 43.721C210.511 44.5782 212.351 45.0173 214.216 45C219.921 45 224.983 41.7053 224.983 32.3839V12.1982H220.516V14.7054ZM214.264 30.5357C210.214 30.5357 208.125 27.3214 208.125 23.4321C208.125 19.5429 210.166 16.3446 214.264 16.3446C218.362 16.3446 220.339 19.5589 220.339 23.4321C220.339 27.3054 218.25 30.5357 214.264 30.5357ZM240.589 11.8607C234.16 11.8607 229.821 17.0679 229.821 23.3679C229.672 26.2704 230.682 29.1133 232.629 31.2712C234.576 33.4291 237.301 34.7254 240.203 34.875H240.733C242.592 34.9245 244.428 34.4572 246.037 33.525C247.649 32.6046 248.978 31.2593 249.878 29.6357L245.892 27.6911C245.361 28.5684 244.607 29.2894 243.707 29.7803C242.81 30.2665 241.801 30.5051 240.782 30.4714C239.372 30.5081 237.997 30.0344 236.908 29.1375C235.819 28.2428 235.084 26.9893 234.835 25.6018H250.441C250.572 24.8646 250.631 24.1165 250.617 23.3679C250.569 17.0679 247.098 11.8607 240.589 11.8607ZM234.707 21.5036C234.884 20.0735 235.582 18.7588 236.667 17.8103C237.752 16.8618 239.148 16.3458 240.589 16.3607C243.932 16.3607 245.555 18.5786 246.021 21.5036H234.707ZM266.255 11.8607C265.18 11.865 264.117 12.0848 263.129 12.5072C262.141 12.9295 261.247 13.5459 260.501 14.3196V12.1982H256.098V34.5536H260.501V22.0821C260.501 17.9036 262.719 16.2804 265.419 16.2804C266.024 16.2653 266.626 16.3747 267.187 16.6018L268.023 12.0054C267.44 11.8935 266.848 11.829 266.255 11.8125V11.8607Z" fill="white"/>
<path d="M26.7424 21.6965C26.5682 21.5329 26.3386 21.441 26.0995 21.4394H9.6424C9.52362 21.4438 9.41004 21.4893 9.32097 21.568C9.23941 21.6487 9.19318 21.7585 9.1924 21.8733V32.9787C9.19661 33.2146 9.29329 33.4394 9.46162 33.6047C9.62995 33.77 9.85646 33.8627 10.0924 33.8626H26.0513C26.1688 33.8647 26.2854 33.8435 26.3945 33.8C26.5036 33.7565 26.603 33.6918 26.6868 33.6095C26.7706 33.5272 26.8371 33.429 26.8825 33.3207C26.928 33.2124 26.9513 33.0961 26.9513 32.9787V22.3233C26.9621 22.0957 26.8876 21.8722 26.7424 21.6965ZM17.8549 19.3983C17.9421 19.319 18.0115 19.2222 18.0585 19.1141C18.1056 19.0061 18.1293 18.8894 18.1281 18.7715V13.4519C18.1249 13.3395 18.0991 13.2289 18.0521 13.1267C18.0052 13.0245 17.9381 12.9329 17.8549 12.8572C17.7725 12.7753 17.6747 12.7104 17.5671 12.6662C17.4596 12.6221 17.3444 12.5996 17.2281 12.6001H1.26919C1.15293 12.5996 1.03773 12.6221 0.930179 12.6662C0.822626 12.7104 0.724833 12.7753 0.6424 12.8572C0.555244 12.9366 0.485846 13.0334 0.438759 13.1414C0.391672 13.2494 0.367963 13.3662 0.369186 13.484V25.8751C0.367963 25.9929 0.391672 26.1097 0.438759 26.2177C0.485846 26.3257 0.555244 26.4226 0.6424 26.5019C0.724833 26.5839 0.822626 26.6488 0.930179 26.6929C1.03773 26.737 1.15293 26.7595 1.26919 26.759H6.58883C6.82326 26.759 7.04809 26.6659 7.21386 26.5001C7.37963 26.3344 7.47276 26.1095 7.47276 25.8751V20.5555C7.4723 20.4392 7.49477 20.324 7.5389 20.2165C7.58302 20.1089 7.64793 20.0111 7.7299 19.9287C7.81179 19.846 7.90949 19.7806 8.01716 19.7364C8.12484 19.6922 8.24031 19.6702 8.35669 19.6715H17.2281C17.3459 19.6728 17.4627 19.649 17.5707 19.602C17.6787 19.5549 17.7756 19.4855 17.8549 19.3983Z" fill="#FF47A0"/>
<path d="M44.5186 27.707L37.9132 12.3588H33.0918L42.3811 34.5695H46.6079L55.2704 12.3588H50.4489L44.5186 27.707ZM82.7364 12.0373C81.3492 11.9943 79.975 12.3157 78.7507 12.9695C77.5343 13.5983 76.5037 14.5347 75.7614 15.6855C75.0622 14.4939 74.0508 13.5159 72.8364 12.857C71.6011 12.2247 70.2204 11.9308 68.8347 12.0052C66.8628 11.971 64.957 12.716 63.5311 14.0784V12.4713H59.0632V34.5695H63.5311V22.1784C63.5311 18.032 65.3632 16.4248 68.1275 16.4248C70.8918 16.4248 72.9489 18.1284 72.9489 22.4516V34.5695H77.4168V22.1784C77.4168 18.032 79.3936 16.4248 82.2382 16.4248C85.0829 16.4248 86.6257 18.1284 86.6257 22.4998V34.6177H91.1418V22.082C91.1418 15.6373 88.0882 12.0373 82.7364 12.0373Z" fill="white"/>
</g>
<defs>
<clipPath id="clip0">
<rect width="268.393" height="45" fill="white"/>
</clipPath>
</defs>
</svg>
